:SAMPLES-PER-SECOND 30
:FULLY-SPECIFIED
:DEGREES
34
root  1.85389 40.7471 -0.443474 179.11 -84.6076 -179.925
RightUpLeg  -0.321242 -9.04387 -7.35492
RightLeg  7.50792 -0.451255 2.68049
RightFoot  -4.75204 -0.144981 1.95345
RightToes  0.000482159 0.542163 -0.142577
Spine  4.04008 -0.446946 -0.64549
Spine1  -3.27006 -0.699072 1.57995
HEad  12.15 1.62693 0.95282
LeftShoulder1  0.578806 -0.610818 -6.26043
LeftArm  -23.7246 14.7234 -12.5163
LeftForeArm  -1.79106 -1.87102 0.698914
LeftHand  -0.25398 0.0180481 5.50724
RightShoulder  0.388974 -0.719309 6.27957
RightArm  -22.5589 -1.85516 5.17066
RightForeArm  -1.75815 4.24231 2.94394
RightHand  -1.59191 4.08893 -19.6531
LeftUpLeg  1.95358 4.75834 0.729918
LeftLeg  6.26075 11.9482 -2.81297
LeftFoot  -8.6404 0.02785 1.10396
LeftToes  1.06245e-005 4.65856e-005 -8.18503e-006
35
root  1.79277 40.6758 -0.418132 179.116 -83.3573 179.514
RightUpLeg  -1.13419 -9.22376 -7.04689
RightLeg  9.90993 1.02981 1.81709
RightFoot  -5.54615 -0.145616 2.13066
RightToes  0.000482159 0.542163 -0.142577
Spine  4.64503 -0.145152 -0.660897
Spine1  -2.5752 -0.386913 1.26744
HEad  12.6277 1.29366 1.03258
LeftShoulder1  0.649334 -0.763292 -7.5527
LeftArm  -25.0162 15.3084 -13.1487
LeftForeArm  0.642611 -3.07887 1.11913
LeftHand  -0.25398 0.0180481 5.50724
RightShoulder  0.510192 -0.102019 7.42854
RightArm  -22.6834 -3.29424 6.2842
RightForeArm  -2.71973 7.58076 3.43736
RightHand  -1.6305 4.07175 -20.1463
LeftUpLeg  2.48658 5.24513 0.845489
LeftLeg  6.98381 12.6838 -2.87148
LeftFoot  -9.45276 0.0468083 0.791925
LeftToes  1.06245e-005 4.65856e-005 -8.18503e-006
36
root  1.73106 40.5905 -0.406599 179.61 -81.7974 178.208
RightUpLeg  -2.2008 -9.23647 -6.87063
RightLeg  13.0969 2.44211 1.06599
RightFoot  -6.1247 -0.161705 2.64804
RightToes  0.000482159 0.542163 -0.142577
Spine  5.72801 0.247836 -0.811323
Spine1  -1.98685 0.0327763 0.787798
HEad  13.2128 0.739607 1.22085
LeftShoulder1  0.705088 -0.813391 -8.79243
LeftArm  -25.7405 15.817 -14.4553
LeftForeArm  3.13122 -4.43542 1.1922
LeftHand  -0.25398 0.0180481 5.50724
RightShoulder  0.67533 0.533739 9.3741
RightArm  -22.604 -5.10148 7.35315
RightForeArm  -2.68445 12.2141 3.99525
RightHand  -1.6802 4.17953 -20.5142
LeftUpLeg  3.31109 5.71256 0.887351
LeftLeg  7.7077 13.7752 -2.94357
LeftFoot  -10.2207 0.0554127 0.605172
LeftToes  1.06245e-005 4.65856e-005 -8.18503e-006
37
root  1.6638 40.4921 -0.400109 179.552 -80.2523 177.33
RightUpLeg  -3.67374 -8.59576 -6.93365
RightLeg  17.2328 2.77189 0.769307
RightFoot  -6.20882 -0.22495 4.06176
RightToes  0.000482159 0.542163 -0.142577
Spine  7.16496 0.543256 -0.96452
Spine1  -1.52025 0.348332 0.239481
HEad  13.7808 0.15275 1.26856
LeftShoulder1  0.770674 -0.88574 -10.145
LeftArm  -25.7002 16.193 -16.3283
LeftForeArm  4.13919 -5.5186 0.891932
LeftHand  -0.25398 0.0180481 5.50724
RightShoulder  0.859062 1.03073 11.8507
RightArm  -21.6294 -6.81515 8.57073
RightForeArm  -2.42517 17.4897 4.44947
RightHand  -1.80884 4.60698 -21.1283
LeftUpLeg  4.18513 6.19546 0.948705
LeftLeg  8.62979 14.7413 -2.90112
LeftFoot  -11.0604 0.0655838 0.252013
LeftToes  1.06245e-005 4.65856e-005 -8.18503e-006
38
root  1.57906 40.3984 -0.401371 178.876 -78.8331 177.36
RightUpLeg  -6.12093 -7.80387 -7.03797
RightLeg  22.5346 2.28474 0.820216
RightFoot  -5.10464 -0.366525 6.04107
RightToes  0.000482159 0.542163 -0.142577
Spine  8.38341 0.653735 -1.0518
Spine1  -1.07271 0.443787 -0.0978805
HEad  14.2927 -0.0695237 0.914472
LeftShoulder1  0.904446 -1.16528 -12.144
LeftArm  -25.2516 16.2717 -18.2853
LeftForeArm  3.50047 -5.8247 0.510161
LeftHand  -0.25398 0.0180481 5.50724
RightShoulder  1.05798 1.49173 14.3092
RightArm  -20.2296 -8.29339 10.1837
RightForeArm  -1.43258 22.4059 4.92371
RightHand  -1.94851 5.03372 -21.8173
LeftUpLeg  4.74572 6.67903 1.10937
LeftLeg  9.61333 15.4885 -2.7532
LeftFoot  -11.9048 0.0700991 -0.281893
LeftToes  1.06245e-005 4.65856e-005 -8.18503e-006
